<?xml version="1.0" encoding="UTF-8"?>
<!DOCTYPE svg PUBLIC "-//W3C//DTD SVG 1.1//EN" "http://www.w3.org/Graphics/SVG/1.1/DTD/svg11.dtd">
<svg xmlns="http://www.w3.org/2000/svg" version="1.1" width="512px" height="512px" style="shape-rendering:geometricPrecision; text-rendering:geometricPrecision; image-rendering:optimizeQuality; fill-rule:evenodd; clip-rule:evenodd" xmlns:xlink="http://www.w3.org/1999/xlink">
<g><path style="opacity:0.006" fill="#000000" d="M 302.5,1.5 C 305.874,1.67436 309.207,2.17436 312.5,3C 307.539,2.62798 302.539,2.62798 297.5,3C 299.382,2.80192 301.048,2.30192 302.5,1.5 Z"/></g>
<g><path style="opacity:0.999" fill="#fbfbfa" d="M 322.5,10.5 C 322.5,11.1667 322.833,11.5 323.5,11.5C 323.5,12.1667 323.833,12.5 324.5,12.5C 326.38,14.9256 327.713,17.5923 328.5,20.5C 329.833,26.5 329.833,32.5 328.5,38.5C 327.626,41.9128 325.959,44.9128 323.5,47.5C 322.833,47.5 322.5,47.8333 322.5,48.5C 321.833,48.5 321.5,48.8333 321.5,49.5C 320.833,49.5 320.5,49.8333 320.5,50.5C 319.5,50.8333 318.833,51.5 318.5,52.5C 317.5,52.8333 316.833,53.5 316.5,54.5C 314.833,55.5 313.5,56.8333 312.5,58.5C 311.833,58.5 311.5,58.8333 311.5,59.5C 310.833,59.5 310.5,59.8333 310.5,60.5C 309.833,60.5 309.5,60.8333 309.5,61.5C 308.833,61.5 308.5,61.8333 308.5,62.5C 307.5,62.8333 306.833,63.5 306.5,64.5C 304.5,65.8333 302.833,67.5 301.5,69.5C 300.5,69.8333 299.833,70.5 299.5,71.5C 298.5,71.8333 297.833,72.5 297.5,73.5C 296.833,73.5 296.5,73.8333 296.5,74.5C 291.106,78.8918 286.439,83.8918 282.5,89.5C 262.83,107.503 243.83,126.17 225.5,145.5C 224.833,146.5 224.167,147.5 223.5,148.5C 222.833,148.5 222.5,148.833 222.5,149.5C 218.833,151.167 216.167,153.833 214.5,157.5C 213.833,157.5 213.5,157.833 213.5,158.5C 212.833,158.5 212.5,158.833 212.5,159.5C 211.833,159.5 211.5,159.833 211.5,160.5C 210.833,160.5 210.5,160.833 210.5,161.5C 209.833,161.5 209.5,161.833 209.5,162.5C 206.833,163.167 205.167,164.833 204.5,167.5C 203.833,167.5 203.5,167.833 203.5,168.5C 202.833,168.5 202.5,168.833 202.5,169.5C 201.833,169.5 201.5,169.833 201.5,170.5C 200.833,170.5 200.5,170.833 200.5,171.5C 199.833,171.5 199.5,171.833 199.5,172.5C 198.833,172.5 198.5,172.833 198.5,173.5C 197.833,173.5 197.5,173.833 197.5,174.5C 196.833,174.5 196.5,174.833 196.5,175.5C 195.833,175.5 195.5,175.833 195.5,176.5C 194.833,176.5 194.5,176.833 194.5,177.5C 193.833,177.5 193.5,177.833 193.5,178.5C 192.833,178.5 192.5,178.833 192.5,179.5C 191.833,179.5 191.5,179.833 191.5,180.5C 190.833,180.5 190.5,180.833 190.5,181.5C 189.833,181.5 189.5,181.833 189.5,182.5C 188.833,182.5 188.5,182.833 188.5,183.5C 187.833,183.5 187.5,183.833 187.5,184.5C 186.833,184.5 186.5,184.833 186.5,185.5C 185.833,185.5 185.5,185.833 185.5,186.5C 184.833,186.5 184.5,186.833 184.5,187.5C 183.833,187.5 183.5,187.833 183.5,188.5C 182.833,188.5 182.5,188.833 182.5,189.5C 181.833,189.5 181.5,189.833 181.5,190.5C 180.833,190.5 180.5,190.833 180.5,191.5C 179.833,191.5 179.5,191.833 179.5,192.5C 178.833,192.5 178.5,192.833 178.5,193.5C 177.833,193.5 177.5,193.833 177.5,194.5C 176.833,194.5 176.5,194.833 176.5,195.5C 175.833,195.5 175.5,195.833 175.5,196.5C 174.833,196.5 174.5,196.833 174.5,197.5C 173.833,197.5 173.5,197.833 173.5,198.5C 172.833,198.5 172.5,198.833 172.5,199.5C 171.833,199.5 171.5,199.833 171.5,200.5C 170.833,200.5 170.5,200.833 170.5,201.5C 169.833,201.5 169.5,201.833 169.5,202.5C 168.833,202.5 168.5,202.833 168.5,203.5C 167.833,203.5 167.5,203.833 167.5,204.5C 166.833,204.5 166.5,204.833 166.5,205.5C 165.833,205.5 165.5,205.833 165.5,206.5C 164.833,206.5 164.5,206.833 164.5,207.5C 163.833,207.5 163.5,207.833 163.5,208.5C 162.833,208.5 162.5,208.833 162.5,209.5C 161.833,209.5 161.5,209.833 161.5,210.5C 160.833,210.5 160.5,210.833 160.5,211.5C 159.833,211.5 159.5,211.833 159.5,212.5C 158.833,212.5 158.5,212.833 158.5,213.5C 157.833,213.5 157.5,213.833 157.5,214.5C 156.833,214.5 156.5,214.833 156.5,215.5C 155.833,215.5 155.5,215.833 155.5,216.5C 154.833,216.5 154.5,216.833 154.5,217.5C 153.833,217.5 153.5,217.833 153.5,218.5C 152.833,218.5 152.5,218.833 152.5,219.5C 151.833,219.5 151.5,219.833 151.5,220.5C 150.833,220.5 150.5,220.833 150.5,221.5C 149.833,221.5 149.5,221.833 149.5,222.5C 147.457,223.579 146.124,225.246 145.5,227.5C 144.662,227.842 144.328,228.508 144.5,229.5C 143.662,229.842 143.328,230.508 143.5,231.5C 142.662,231.842 142.328,232.508 142.5,233.5C 141.662,233.842 141.328,234.508 141.5,235.5C 133.317,255.073 135.984,273.073 149.5,289.5C 149.5,290.167 149.833,290.5 150.5,290.5C 150.5,291.167 150.833,291.5 151.5,291.5C 154.833,295.5 158.5,299.167 162.5,302.5C 162.5,303.167 162.833,303.5 163.5,303.5C 163.5,304.167 163.833,304.5 164.5,304.5C 164.5,305.167 164.833,305.5 165.5,305.5C 165.5,306.167 165.833,306.5 166.5,306.5C 184.833,325.5 203.5,344.167 222.5,362.5C 222.5,363.167 222.833,363.5 223.5,363.5C 223.833,364.167 224.167,364.833 224.5,365.5C 233.896,380.423 231.563,393.256 217.5,404C 209.525,408.336 201.525,408.503 193.5,404.5C 183.553,395.889 173.886,386.889 164.5,377.5C 164.167,376.5 163.5,375.833 162.5,375.5C 162.5,374.833 162.167,374.5 161.5,374.5C 148.113,360.446 134.446,346.779 120.5,333.5C 120.167,332.5 119.5,331.833 118.5,331.5C 118.5,330.833 118.167,330.5 117.5,330.5C 117.5,329.833 117.167,329.5 116.5,329.5C 116.5,328.833 116.167,328.5 115.5,328.5C 115.5,327.833 115.167,327.5 114.5,327.5C 114.5,326.833 114.167,326.5 113.5,326.5C 113.5,325.833 113.167,325.5 112.5,325.5C 112.5,324.833 112.167,324.5 111.5,324.5C 96.6248,308.073 88.2915,288.74 86.5,266.5C 86.8907,256.984 86.8907,247.651 86.5,238.5C 90.1483,220.207 97.815,203.874 109.5,189.5C 110.167,189.5 110.5,189.167 110.5,188.5C 169.938,128.562 229.605,68.7283 289.5,9C 300.866,2.6142 311.866,3.1142 322.5,10.5 Z"/></g>
<g><path style="opacity:0.004" fill="#000000" d="M 322.5,10.5 C 322.897,9.47498 323.563,9.30831 324.5,10C 325.774,10.9772 325.774,11.8106 324.5,12.5C 323.833,12.5 323.5,12.1667 323.5,11.5C 322.833,11.5 322.5,11.1667 322.5,10.5 Z"/></g>
<g><path style="opacity:0.006" fill="#000000" d="M 329.5,17.5 C 330.525,17.8966 330.692,18.5632 330,19.5C 329.536,18.9056 329.369,18.2389 329.5,17.5 Z"/></g>
<g><path style="opacity:0.004" fill="#000000" d="M 331.5,22.5 C 330.475,22.1034 330.308,21.4368 331,20.5C 331.464,21.0944 331.631,21.7611 331.5,22.5 Z"/></g>
<g><path style="opacity:0.006" fill="#000000" d="M 331.5,22.5 C 332.833,27.1667 332.833,31.8333 331.5,36.5C 331.5,31.8333 331.5,27.1667 331.5,22.5 Z"/></g>
<g><path style="opacity:0.286" fill="#737372" d="M 328.5,20.5 C 329.991,23.1864 330.657,26.1864 330.5,29.5C 330.657,32.8136 329.991,35.8136 328.5,38.5C 329.833,32.5 329.833,26.5 328.5,20.5 Z"/></g>
<g><path style="opacity:0.004" fill="#000000" d="M 331.5,36.5 C 331.631,37.2389 331.464,37.9056 331,38.5C 330.308,37.5632 330.475,36.8966 331.5,36.5 Z"/></g>
<g><path style="opacity:0.006" fill="#000000" d="M 329.5,39.5 C 330.525,39.8966 330.692,40.5632 330,41.5C 329.536,40.9056 329.369,40.2389 329.5,39.5 Z"/></g>
<g><path style="opacity:0.004" fill="#000000" d="M 323.5,47.5 C 324.239,47.369 324.906,47.5357 325.5,48C 323.963,49.7073 322.296,51.2073 320.5,52.5C 320.5,51.8333 320.5,51.1667 320.5,50.5C 321.167,50.5 321.5,50.1667 321.5,49.5C 322.167,49.5 322.5,49.1667 322.5,48.5C 323.167,48.5 323.5,48.1667 323.5,47.5 Z"/></g>
<g><path style="opacity:0.004" fill="#000000" d="M 318.5,52.5 C 319.167,52.5 319.833,52.5 320.5,52.5C 320.167,53.5 319.5,54.1667 318.5,54.5C 318.5,53.8333 318.5,53.1667 318.5,52.5 Z"/></g>
<g><path style="opacity:0.004" fill="#000000" d="M 316.5,54.5 C 317.167,54.5 317.833,54.5 318.5,54.5C 317.452,56.9327 316.786,56.9327 316.5,54.5 Z"/></g>
<g><path style="opacity:0.004" fill="#000000" d="M 312.5,58.5 C 313.239,58.369 313.906,58.5357 314.5,59C 312.63,61.0396 310.63,62.8729 308.5,64.5C 308.5,63.8333 308.5,63.1667 308.5,62.5C 309.167,62.5 309.5,62.1667 309.5,61.5C 310.167,61.5 310.5,61.1667 310.5,60.5C 311.167,60.5 311.5,60.1667 311.5,59.5C 312.167,59.5 312.5,59.1667 312.5,58.5 Z"/></g>
<g><path style="opacity:0.004" fill="#000000" d="M 306.5,64.5 C 307.167,64.5 307.833,64.5 308.5,64.5C 307.452,66.9327 306.786,66.9327 306.5,64.5 Z"/></g>
<g><path style="opacity:0.004" fill="#000000" d="M 301.5,69.5 C 303.933,69.7856 303.933,70.4523 301.5,71.5C 301.5,70.8333 301.5,70.1667 301.5,69.5 Z"/></g>
<g><path style="opacity:0.004" fill="#000000" d="M 299.5,71.5 C 300.167,71.5 300.833,71.5 301.5,71.5C 301.167,72.5 300.5,73.1667 299.5,73.5C 299.5,72.8333 299.5,72.1667 299.5,71.5 Z"/></g>
<g><path style="opacity:0.004" fill="#000000" d="M 297.5,73.5 C 298.167,73.5 298.833,73.5 299.5,73.5C 298.322,76.2165 297.322,76.5499 296.5,74.5C 297.167,74.5 297.5,74.1667 297.5,73.5 Z"/></g>
<g><path style="opacity:0.004" fill="#b9b818" d="M 289.5,89.5 C 288.448,89.6495 287.448,89.4828 286.5,89C 287.749,88.2599 288.749,88.4265 289.5,89.5 Z"/></g>
<g><path style="opacity:0.004" fill="#ffb1f9" d="M 289.5,89.5 C 290.791,89.2627 291.791,89.596 292.5,90.5C 291.209,90.7373 290.209,90.404 289.5,89.5 Z"/></g>
<g><path style="opacity:0.004" fill="#ffd6fe" d="M 292.5,90.5 C 293.239,90.369 293.906,90.5357 294.5,91C 293.563,91.6917 292.897,91.525 292.5,90.5 Z"/></g>
<g><path style="opacity:1" fill="#eba342" d="M 282.5,89.5 C 297.059,93.2786 310.059,99.9452 321.5,109.5C 321.5,110.167 321.833,110.5 322.5,110.5C 340.17,127.17 357.17,144.503 373.5,162.5C 375.879,167.905 376.879,173.572 376.5,179.5C 375.262,181.214 374.595,183.214 374.5,185.5C 373.662,185.842 373.328,186.508 373.5,187.5C 372.662,187.842 372.328,188.508 372.5,189.5C 371.833,189.5 371.5,189.833 371.5,190.5C 370.833,190.5 370.5,190.833 370.5,191.5C 369.833,191.5 369.5,191.833 369.5,192.5C 368.833,192.5 368.5,192.833 368.5,193.5C 367.833,193.5 367.5,193.833 367.5,194.5C 366.833,194.5 366.5,194.833 366.5,195.5C 365.833,195.5 365.5,195.833 365.5,196.5C 364.508,196.328 363.842,196.662 363.5,197.5C 362.833,197.5 362.5,197.833 362.5,198.5C 361.209,198.263 360.209,198.596 359.5,199.5C 350.448,201.786 342.115,200.286 334.5,195C 317.805,177.971 300.805,161.304 283.5,145C 270.634,137.296 257.634,135.129 244.5,138.5C 242.901,138.232 241.568,138.566 240.5,139.5C 239.209,139.263 238.209,139.596 237.5,140.5C 236.508,140.328 235.842,140.662 235.5,141.5C 233.62,141.229 232.287,141.896 231.5,143.5C 230.508,143.328 229.842,143.662 229.5,144.5C 228.167,144.833 226.833,145.167 225.5,145.5C 243.83,126.17 262.83,107.503 282.5,89.5 Z"/></g>
<g><path style="opacity:0.004" fill="#ffc682" d="M 321.5,109.5 C 322.497,108.287 323.497,108.454 324.5,110C 323.906,110.464 323.239,110.631 322.5,110.5C 321.833,110.5 321.5,110.167 321.5,109.5 Z"/></g>
<g><path style="opacity:0.004" fill="#feff00" d="M 253.5,138.5 C 254.833,137.167 256.167,137.167 257.5,138.5C 256.167,138.5 254.833,138.5 253.5,138.5 Z"/></g>
<g><path style="opacity:0.004" fill="#ffbe2f" d="M 244.5,139.5 C 244.5,139.167 244.5,138.833 244.5,138.5C 247.5,138.5 250.5,138.5 253.5,138.5C 250.713,139.477 247.713,139.81 244.5,139.5 Z"/></g>
<g><path style="opacity:0.004" fill="#ffc719" d="M 257.5,138.5 C 260.187,138.336 262.854,138.503 265.5,139C 262.633,139.801 259.966,139.634 257.5,138.5 Z"/></g>
<g><path style="opacity:0.004" fill="#ffe3fe" d="M 240.5,140.5 C 240.5,140.167 240.5,139.833 240.5,139.5C 241.833,139.5 243.167,139.5 244.5,139.5C 243.432,140.434 242.099,140.768 240.5,140.5 Z"/></g>
<g><path style="opacity:0.004" fill="#ffe0fe" d="M 269.5,140.5 C 268.448,140.649 267.448,140.483 266.5,140C 267.749,139.26 268.749,139.427 269.5,140.5 Z"/></g>
<g><path style="opacity:0.008" fill="#ff9051" d="M 237.5,141.5 C 237.5,141.167 237.5,140.833 237.5,140.5C 238.5,140.5 239.5,140.5 240.5,140.5C 239.791,141.404 238.791,141.737 237.5,141.5 Z"/></g>
<g><path style="opacity:0.008" fill="#7e605e" d="M 269.5,140.5 C 270.552,140.351 271.552,140.517 272.5,141C 271.251,141.74 270.251,141.573 269.5,140.5 Z"/></g>
<g><path style="opacity:0.004" fill="#ffd64c" d="M 235.5,142.5 C 235.5,142.167 235.5,141.833 235.5,141.5C 236.167,141.5 236.833,141.5 237.5,141.5C 237.158,142.338 236.492,142.672 235.5,142.5 Z"/></g>
<g><path style="opacity:0.004" fill="#ffd6fe" d="M 235.5,142.5 C 235.103,143.525 234.437,143.692 233.5,143C 234.094,142.536 234.761,142.369 235.5,142.5 Z"/></g>
<g><path style="opacity:0.008" fill="#fe807f" d="M 231.5,143.5 C 232.833,144.167 232.833,144.167 231.5,143.5 Z"/></g>
<g><path style="opacity:0.006" fill="#feff00" d="M 229.5,144.5 C 230.167,144.5 230.833,144.5 231.5,144.5C 230.833,145.833 230.167,145.833 229.5,144.5 Z"/></g>
<g><path style="opacity:0.012" fill="#000000" d="M 223.5,148.5 C 224.833,149.167 224.833,149.167 223.5,148.5 Z"/></g>
<g><path style="opacity:0.012" fill="#540000" d="M 222.5,149.5 C 222.833,149.5 223.167,149.5 223.5,149.5C 223.315,150.17 222.981,150.17 222.5,149.5 Z"/></g>
<g><path style="opacity:0.008" fill="#000000" d="M 214.5,157.5 C 215.833,158.167 215.833,158.167 214.5,157.5 Z"/></g>
<g><path style="opacity:0.008" fill="#000000" d="M 213.5,158.5 C 213.833,158.5 214.167,158.5 214.5,158.5C 214.315,159.17 213.981,159.17 213.5,158.5 Z"/></g>
<g><path style="opacity:0.008" fill="#000000" d="M 212.5,159.5 C 212.833,159.5 213.167,159.5 213.5,159.5C 213.315,160.17 212.981,160.17 212.5,159.5 Z"/></g>
<g><path style="opacity:0.008" fill="#000000" d="M 211.5,160.5 C 211.833,160.5 212.167,160.5 212.5,160.5C 212.315,161.17 211.981,161.17 211.5,160.5 Z"/></g>
<g><path style="opacity:0.008" fill="#000000" d="M 210.5,161.5 C 210.833,161.5 211.167,161.5 211.5,161.5C 211.315,162.17 210.981,162.17 210.5,161.5 Z"/></g>
<g><path style="opacity:0.008" fill="#ffacfe" d="M 374.5,162.5 C 374.167,162.5 373.833,162.5 373.5,162.5C 373.833,159.833 374.167,159.833 374.5,162.5 Z"/></g>
<g><path style="opacity:0.008" fill="#000000" d="M 209.5,162.5 C 209.833,162.5 210.167,162.5 210.5,162.5C 210.315,163.17 209.981,163.17 209.5,162.5 Z"/></g>
<g><path style="opacity:0.008" fill="#fe8000" d="M 374.5,162.5 C 375.167,162.5 375.5,162.833 375.5,163.5C 375.167,163.167 374.833,162.833 374.5,162.5 Z"/></g>
<g><path style="opacity:0.008" fill="#ff6cff" d="M 375.5,163.5 C 376.573,164.251 376.74,165.251 376,166.5C 375.517,165.552 375.351,164.552 375.5,163.5 Z"/></g>
<g><path style="opacity:0.008" fill="#000000" d="M 204.5,167.5 C 205.833,168.167 205.833,168.167 204.5,167.5 Z"/></g>
<g><path style="opacity:0.008" fill="#000000" d="M 203.5,168.5 C 203.833,168.5 204.167,168.5 204.5,168.5C 204.315,169.17 203.981,169.17 203.5,168.5 Z"/></g>
<g><path style="opacity:0.008" fill="#000000" d="M 202.5,169.5 C 202.833,169.5 203.167,169.5 203.5,169.5C 203.315,170.17 202.981,170.17 202.5,169.5 Z"/></g>
<g><path style="opacity:0.008" fill="#000000" d="M 201.5,170.5 C 201.833,170.5 202.167,170.5 202.5,170.5C 202.315,171.17 201.981,171.17 201.5,170.5 Z"/></g>
<g><path style="opacity:0.008" fill="#000000" d="M 200.5,171.5 C 200.833,171.5 201.167,171.5 201.5,171.5C 201.315,172.17 200.981,172.17 200.5,171.5 Z"/></g>
<g><path style="opacity:0.008" fill="#000000" d="M 199.5,172.5 C 199.833,172.5 200.167,172.5 200.5,172.5C 200.315,173.17 199.981,173.17 199.5,172.5 Z"/></g>
<g><path style="opacity:0.008" fill="#000000" d="M 198.5,173.5 C 198.833,173.5 199.167,173.5 199.5,173.5C 199.315,174.17 198.981,174.17 198.5,173.5 Z"/></g>
<g><path style="opacity:0.008" fill="#e4da43" d="M 377.5,179.5 C 377.335,176.482 377.502,173.482 378,170.5C 378.805,173.696 378.638,176.696 377.5,179.5 Z"/></g>
<g><path style="opacity:0.008" fill="#000000" d="M 197.5,174.5 C 197.833,174.5 198.167,174.5 198.5,174.5C 198.315,175.17 197.981,175.17 197.5,174.5 Z"/></g>
<g><path style="opacity:0.008" fill="#000000" d="M 196.5,175.5 C 196.833,175.5 197.167,175.5 197.5,175.5C 197.315,176.17 196.981,176.17 196.5,175.5 Z"/></g>
<g><path style="opacity:0.008" fill="#000000" d="M 195.5,176.5 C 195.833,176.5 196.167,176.5 196.5,176.5C 196.315,177.17 195.981,177.17 195.5,176.5 Z"/></g>
<g><path style="opacity:0.008" fill="#000000" d="M 194.5,177.5 C 194.833,177.5 195.167,177.5 195.5,177.5C 195.315,178.17 194.981,178.17 194.5,177.5 Z"/></g>
<g><path style="opacity:0.008" fill="#000000" d="M 193.5,178.5 C 193.833,178.5 194.167,178.5 194.5,178.5C 194.315,179.17 193.981,179.17 193.5,178.5 Z"/></g>
<g><path style="opacity:0.008" fill="#000000" d="M 192.5,179.5 C 192.833,179.5 193.167,179.5 193.5,179.5C 193.315,180.17 192.981,180.17 192.5,179.5 Z"/></g>
<g><path style="opacity:0.008" fill="#000000" d="M 191.5,180.5 C 191.833,180.5 192.167,180.5 192.5,180.5C 192.315,181.17 191.981,181.17 191.5,180.5 Z"/></g>
<g><path style="opacity:0.012" fill="#d5bf3c" d="M 376.5,179.5 C 376.833,179.5 377.167,179.5 377.5,179.5C 377.167,183.5 376.833,183.5 376.5,179.5 Z"/></g>
<g><path style="opacity:0.008" fill="#000000" d="M 190.5,181.5 C 190.833,181.5 191.167,181.5 191.5,181.5C 191.315,182.17 190.981,182.17 190.5,181.5 Z"/></g>
<g><path style="opacity:0.008" fill="#000000" d="M 189.5,182.5 C 189.833,182.5 190.167,182.5 190.5,182.5C 190.315,183.17 189.981,183.17 189.5,182.5 Z"/></g>
<g><path style="opacity:0.008" fill="#000000" d="M 188.5,183.5 C 188.833,183.5 189.167,183.5 189.5,183.5C 189.315,184.17 188.981,184.17 188.5,183.5 Z"/></g>
<g><path style="opacity:0.008" fill="#000000" d="M 187.5,184.5 C 187.833,184.5 188.167,184.5 188.5,184.5C 188.315,185.17 187.981,185.17 187.5,184.5 Z"/></g>
<g><path style="opacity:0.008" fill="#ab82ff" d="M 375.5,185.5 C 375.369,184.761 375.536,184.094 376,183.5C 376.692,184.437 376.525,185.103 375.5,185.5 Z"/></g>
<g><path style="opacity:0.008" fill="#000000" d="M 186.5,185.5 C 186.833,185.5 187.167,185.5 187.5,185.5C 187.315,186.17 186.981,186.17 186.5,185.5 Z"/></g>
<g><path style="opacity:0.005" fill="#000000" d="M 110.5,188.5 C 109.833,188.5 109.5,188.833 109.5,189.5C 108.287,188.503 108.454,187.503 110,186.5C 110.464,187.094 110.631,187.761 110.5,188.5 Z"/></g>
<g><path style="opacity:0.008" fill="#000000" d="M 185.5,186.5 C 185.833,186.5 186.167,186.5 186.5,186.5C 186.315,187.17 185.981,187.17 185.5,186.5 Z"/></g>
<g><path style="opacity:0.004" fill="#ffd6fe" d="M 374.5,185.5 C 374.833,185.5 375.167,185.5 375.5,185.5C 375.672,186.492 375.338,187.158 374.5,187.5C 374.5,186.833 374.5,186.167 374.5,185.5 Z"/></g>
<g><path style="opacity:0.008" fill="#000000" d="M 184.5,187.5 C 184.833,187.5 185.167,187.5 185.5,187.5C 185.315,188.17 184.981,188.17 184.5,187.5 Z"/></g>
<g><path style="opacity:0.008" fill="#000000" d="M 183.5,188.5 C 183.833,188.5 184.167,188.5 184.5,188.5C 184.315,189.17 183.981,189.17 183.5,188.5 Z"/></g>
<g><path style="opacity:0.004" fill="#ffd6fe" d="M 373.5,187.5 C 373.833,187.5 374.167,187.5 374.5,187.5C 374.672,188.492 374.338,189.158 373.5,189.5C 373.5,188.833 373.5,188.167 373.5,187.5 Z"/></g>
<g><path style="opacity:0.012" fill="#000000" d="M 182.5,189.5 C 182.833,189.5 183.167,189.5 183.5,189.5C 183.315,190.17 182.981,190.17 182.5,189.5 Z"/></g>
<g><path style="opacity:0.008" fill="#fe8000" d="M 372.5,189.5 C 372.833,189.5 373.167,189.5 373.5,189.5C 373.315,190.17 372.981,190.17 372.5,189.5 Z"/></g>
<g><path style="opacity:0.008" fill="#000000" d="M 181.5,190.5 C 181.833,190.5 182.167,190.5 182.5,190.5C 182.315,191.17 181.981,191.17 181.5,190.5 Z"/></g>
<g><path style="opacity:0.008" fill="#fe8000" d="M 371.5,190.5 C 371.833,190.5 372.167,190.5 372.5,190.5C 372.315,191.17 371.981,191.17 371.5,190.5 Z"/></g>
<g><path style="opacity:0.012" fill="#000000" d="M 180.5,191.5 C 180.833,191.5 181.167,191.5 181.5,191.5C 181.315,192.17 180.981,192.17 180.5,191.5 Z"/></g>
<g><path style="opacity:0.008" fill="#fe8000" d="M 370.5,191.5 C 370.833,191.5 371.167,191.5 371.5,191.5C 371.315,192.17 370.981,192.17 370.5,191.5 Z"/></g>
<g><path style="opacity:0.008" fill="#000000" d="M 179.5,192.5 C 179.833,192.5 180.167,192.5 180.5,192.5C 180.315,193.17 179.981,193.17 179.5,192.5 Z"/></g>
<g><path style="opacity:0.012" fill="#000000" d="M 178.5,193.5 C 178.833,193.5 179.167,193.5 179.5,193.5C 179.315,194.17 178.981,194.17 178.5,193.5 Z"/></g>
<g><path style="opacity:0.008" fill="#000000" d="M 177.5,194.5 C 177.833,194.5 178.167,194.5 178.5,194.5C 178.315,195.17 177.981,195.17 177.5,194.5 Z"/></g>
<g><path style="opacity:0.004" fill="#ff8cf7" d="M 369.5,192.5 C 369.833,192.5 370.167,192.5 370.5,192.5C 370.5,194.5 369.5,195.5 367.5,195.5C 367.5,195.167 367.5,194.833 367.5,194.5C 368.167,194.5 368.5,194.167 368.5,193.5C 369.167,193.5 369.5,193.167 369.5,192.5 Z"/></g>
<g><path style="opacity:0.012" fill="#000000" d="M 176.5,195.5 C 176.833,195.5 177.167,195.5 177.5,195.5C 177.315,196.17 176.981,196.17 176.5,195.5 Z"/></g>
<g><path style="opacity:0.008" fill="#fe8000" d="M 366.5,195.5 C 366.833,195.5 367.167,195.5 367.5,195.5C 367.315,196.17 366.981,196.17 366.5,195.5 Z"/></g>
<g><path style="opacity:0.008" fill="#000000" d="M 175.5,196.5 C 175.833,196.5 176.167,196.5 176.5,196.5C 176.315,197.17 175.981,197.17 175.5,196.5 Z"/></g>
<g><path style="opacity:0.008" fill="#fe8000" d="M 365.5,196.5 C 365.833,196.5 366.167,196.5 366.5,196.5C 366.315,197.17 365.981,197.17 365.5,196.5 Z"/></g>
<g><path style="opacity:0.008" fill="#000000" d="M 174.5,197.5 C 174.833,197.5 175.167,197.5 175.5,197.5C 175.315,198.17 174.981,198.17 174.5,197.5 Z"/></g>
<g><path style="opacity:0.004" fill="#fffebe" d="M 363.5,198.5 C 363.5,198.167 363.5,197.833 363.5,197.5C 364.167,197.5 364.833,197.5 365.5,197.5C 365.158,198.338 364.492,198.672 363.5,198.5 Z"/></g>
<g><path style="opacity:0.008" fill="#000000" d="M 173.5,198.5 C 173.833,198.5 174.167,198.5 174.5,198.5C 174.315,199.17 173.981,199.17 173.5,198.5 Z"/></g>
<g><path style="opacity:0.004" fill="#feff00" d="M 337.5,198.5 C 338.833,199.167 338.833,199.167 337.5,198.5 Z"/></g>
<g><path style="opacity:0.008" fill="#fe8000" d="M 362.5,198.5 C 362.833,198.5 363.167,198.5 363.5,198.5C 363.315,199.17 362.981,199.17 362.5,198.5 Z"/></g>
<g><path style="opacity:0.008" fill="#000000" d="M 172.5,199.5 C 172.833,199.5 173.167,199.5 173.5,199.5C 173.315,200.17 172.981,200.17 172.5,199.5 Z"/></g>
<g><path style="opacity:0.008" fill="#fffe55" d="M 359.5,199.5 C 360.5,199.5 361.5,199.5 362.5,199.5C 361.5,200.833 360.5,200.833 359.5,199.5 Z"/></g>
<g><path style="opacity:0.008" fill="#000000" d="M 171.5,200.5 C 171.833,200.5 172.167,200.5 172.5,200.5C 172.315,201.17 171.981,201.17 171.5,200.5 Z"/></g>
<g><path style="opacity:0.008" fill="#000000" d="M 170.5,201.5 C 170.833,201.5 171.167,201.5 171.5,201.5C 171.315,202.17 170.981,202.17 170.5,201.5 Z"/></g>
<g><path style="opacity:0.008" fill="#000000" d="M 169.5,202.5 C 169.833,202.5 170.167,202.5 170.5,202.5C 170.315,203.17 169.981,203.17 169.5,202.5 Z"/></g>
<g><path style="opacity:0.008" fill="#000000" d="M 168.5,203.5 C 168.833,203.5 169.167,203.5 169.5,203.5C 169.315,204.17 168.981,204.17 168.5,203.5 Z"/></g>
<g><path style="opacity:0.008" fill="#000000" d="M 167.5,204.5 C 167.833,204.5 168.167,204.5 168.5,204.5C 168.315,205.17 167.981,205.17 167.5,204.5 Z"/></g>
<g><path style="opacity:0.008" fill="#000000" d="M 166.5,205.5 C 166.833,205.5 167.167,205.5 167.5,205.5C 167.315,206.17 166.981,206.17 166.5,205.5 Z"/></g>
<g><path style="opacity:0.008" fill="#000000" d="M 165.5,206.5 C 165.833,206.5 166.167,206.5 166.5,206.5C 166.315,207.17 165.981,207.17 165.5,206.5 Z"/></g>
<g><path style="opacity:0.008" fill="#000000" d="M 164.5,207.5 C 164.833,207.5 165.167,207.5 165.5,207.5C 165.315,208.17 164.981,208.17 164.5,207.5 Z"/></g>
<g><path style="opacity:0.008" fill="#000000" d="M 163.5,208.5 C 163.833,208.5 164.167,208.5 164.5,208.5C 164.315,209.17 163.981,209.17 163.5,208.5 Z"/></g>
<g><path style="opacity:0.008" fill="#000000" d="M 162.5,209.5 C 162.833,209.5 163.167,209.5 163.5,209.5C 163.315,210.17 162.981,210.17 162.5,209.5 Z"/></g>
<g><path style="opacity:0.012" fill="#000000" d="M 161.5,210.5 C 161.833,210.5 162.167,210.5 162.5,210.5C 162.315,211.17 161.981,211.17 161.5,210.5 Z"/></g>
<g><path style="opacity:0.008" fill="#000000" d="M 160.5,211.5 C 160.833,211.5 161.167,211.5 161.5,211.5C 161.315,212.17 160.981,212.17 160.5,211.5 Z"/></g>
<g><path style="opacity:0.012" fill="#000000" d="M 159.5,212.5 C 159.833,212.5 160.167,212.5 160.5,212.5C 160.315,213.17 159.981,213.17 159.5,212.5 Z"/></g>
<g><path style="opacity:0.008" fill="#000000" d="M 158.5,213.5 C 158.833,213.5 159.167,213.5 159.5,213.5C 159.315,214.17 158.981,214.17 158.5,213.5 Z"/></g>
<g><path style="opacity:0.012" fill="#000000" d="M 157.5,214.5 C 157.833,214.5 158.167,214.5 158.5,214.5C 158.315,215.17 157.981,215.17 157.5,214.5 Z"/></g>
<g><path style="opacity:0.008" fill="#000000" d="M 156.5,215.5 C 156.833,215.5 157.167,215.5 157.5,215.5C 157.315,216.17 156.981,216.17 156.5,215.5 Z"/></g>
<g><path style="opacity:0.012" fill="#000000" d="M 155.5,216.5 C 155.833,216.5 156.167,216.5 156.5,216.5C 156.315,217.17 155.981,217.17 155.5,216.5 Z"/></g>
<g><path style="opacity:0.008" fill="#000000" d="M 154.5,217.5 C 154.833,217.5 155.167,217.5 155.5,217.5C 155.315,218.17 154.981,218.17 154.5,217.5 Z"/></g>
<g><path style="opacity:0.012" fill="#000000" d="M 153.5,218.5 C 153.833,218.5 154.167,218.5 154.5,218.5C 154.315,219.17 153.981,219.17 153.5,218.5 Z"/></g>
<g><path style="opacity:0.012" fill="#000000" d="M 152.5,219.5 C 152.833,219.5 153.167,219.5 153.5,219.5C 153.315,220.17 152.981,220.17 152.5,219.5 Z"/></g>
<g><path style="opacity:0.012" fill="#000000" d="M 151.5,220.5 C 151.833,220.5 152.167,220.5 152.5,220.5C 152.315,221.17 151.981,221.17 151.5,220.5 Z"/></g>
<g><path style="opacity:0.012" fill="#000000" d="M 150.5,221.5 C 150.833,221.5 151.167,221.5 151.5,221.5C 151.315,222.17 150.981,222.17 150.5,221.5 Z"/></g>
<g><path style="opacity:0.012" fill="#000000" d="M 149.5,222.5 C 149.833,222.5 150.167,222.5 150.5,222.5C 150.315,223.17 149.981,223.17 149.5,222.5 Z"/></g>
<g><path style="opacity:0.006" fill="#000000" d="M 145.5,227.5 C 146.833,228.167 146.833,228.833 145.5,229.5C 145.5,228.833 145.5,228.167 145.5,227.5 Z"/></g>
<g><path style="opacity:0.006" fill="#000000" d="M 144.5,229.5 C 144.833,229.5 145.167,229.5 145.5,229.5C 145.672,230.492 145.338,231.158 144.5,231.5C 144.5,230.833 144.5,230.167 144.5,229.5 Z"/></g>
<g><path style="opacity:0.006" fill="#000000" d="M 143.5,231.5 C 143.833,231.5 144.167,231.5 144.5,231.5C 144.672,232.492 144.338,233.158 143.5,233.5C 143.5,232.833 143.5,232.167 143.5,231.5 Z"/></g>
<g><path style="opacity:0.006" fill="#000000" d="M 142.5,233.5 C 142.833,233.5 143.167,233.5 143.5,233.5C 143.672,234.492 143.338,235.158 142.5,235.5C 142.5,234.833 142.5,234.167 142.5,233.5 Z"/></g>
<g><path style="opacity:1" fill="#b4b2b1" d="M 429.5,234.5 C 429.5,235.167 429.833,235.5 430.5,235.5C 439.515,243.556 442.515,253.556 439.5,265.5C 438.662,265.842 438.328,266.508 438.5,267.5C 437.662,267.842 437.328,268.508 437.5,269.5C 436.833,269.5 436.5,269.833 436.5,270.5C 435.662,270.842 435.328,271.508 435.5,272.5C 434.833,272.5 434.5,272.833 434.5,273.5C 433.833,273.5 433.5,273.833 433.5,274.5C 432.833,274.5 432.5,274.833 432.5,275.5C 430.205,276.475 428.205,277.808 426.5,279.5C 424.821,279.892 423.154,280.392 421.5,281C 359.167,281.667 296.833,281.667 234.5,281C 232.593,279.878 230.593,279.045 228.5,278.5C 223.01,274.679 219.01,269.679 216.5,263.5C 214.189,246.929 220.855,236.095 236.5,231C 297.833,230.333 359.167,230.333 420.5,231C 423.739,231.622 426.739,232.788 429.5,234.5 Z"/></g>
<g><path style="opacity:0.004" fill="#484848" d="M 429.5,234.5 C 430.497,233.287 431.497,233.454 432.5,235C 431.906,235.464 431.239,235.631 430.5,235.5C 429.833,235.5 429.5,235.167 429.5,234.5 Z"/></g>
<g><path style="opacity:0.004" fill="#000000" d="M 141.5,235.5 C 141.833,235.5 142.167,235.5 142.5,235.5C 142.167,238.167 141.833,238.167 141.5,235.5 Z"/></g>
<g><path style="opacity:0.007" fill="#0f0a01" d="M 85.5,244.5 C 84.4927,254.018 84.326,263.685 85,273.5C 83.0262,261.506 83.0262,249.506 85,237.5C 85.4966,239.81 85.6633,242.143 85.5,244.5 Z"/></g>
<g><path style="opacity:0.008" fill="#979797" d="M 215.5,263.5 C 214.352,259.019 214.185,254.352 215,249.5C 215.499,254.155 215.666,258.821 215.5,263.5 Z"/></g>
<g><path style="opacity:0.269" fill="#8e8780" d="M 86.5,238.5 C 86.8907,247.651 86.8907,256.984 86.5,266.5C 85.5084,259.352 85.175,252.019 85.5,244.5C 86.4614,242.735 86.7947,240.735 86.5,238.5 Z"/></g>
<g><path style="opacity:0.008" fill="#ac8280" d="M 215.5,263.5 C 215.833,263.5 216.167,263.5 216.5,263.5C 216.167,266.167 215.833,266.167 215.5,263.5 Z"/></g>
<g><path style="opacity:0.006" fill="#fefffe" d="M 439.5,265.5 C 440.833,266.167 440.833,266.833 439.5,267.5C 439.5,266.833 439.5,266.167 439.5,265.5 Z"/></g>
<g><path style="opacity:0.004" fill="#fefffe" d="M 438.5,267.5 C 438.833,267.5 439.167,267.5 439.5,267.5C 439.672,268.492 439.338,269.158 438.5,269.5C 438.5,268.833 438.5,268.167 438.5,267.5 Z"/></g>
<g><path style="opacity:0.008" fill="#fefffe" d="M 437.5,269.5 C 437.833,269.5 438.167,269.5 438.5,269.5C 438.315,270.17 437.981,270.17 437.5,269.5 Z"/></g>
<g><path style="opacity:0.004" fill="#fefffe" d="M 436.5,270.5 C 436.833,270.5 437.167,270.5 437.5,270.5C 437.672,271.492 437.338,272.158 436.5,272.5C 436.5,271.833 436.5,271.167 436.5,270.5 Z"/></g>
<g><path style="opacity:0.008" fill="#7f807f" d="M 435.5,272.5 C 435.833,272.5 436.167,272.5 436.5,272.5C 436.315,273.17 435.981,273.17 435.5,272.5 Z"/></g>
<g><path style="opacity:0.008" fill="#fefffe" d="M 434.5,273.5 C 434.833,273.5 435.167,273.5 435.5,273.5C 435.315,274.17 434.981,274.17 434.5,273.5 Z"/></g>
<g><path style="opacity:0.008" fill="#7f807f" d="M 433.5,274.5 C 433.833,274.5 434.167,274.5 434.5,274.5C 434.315,275.17 433.981,275.17 433.5,274.5 Z"/></g>
<g><path style="opacity:0.008" fill="#fefffe" d="M 432.5,275.5 C 432.833,275.5 433.167,275.5 433.5,275.5C 433.315,276.17 432.981,276.17 432.5,275.5 Z"/></g>
<g><path style="opacity:0.008" fill="#a8a8a8" d="M 228.5,278.5 C 228.5,278.833 228.5,279.167 228.5,279.5C 225.833,279.167 225.833,278.833 228.5,278.5 Z"/></g>
<g><path style="opacity:0.008" fill="#7f807f" d="M 228.5,279.5 C 229.167,279.5 229.5,279.833 229.5,280.5C 229.167,280.167 228.833,279.833 228.5,279.5 Z"/></g>
<g><path style="opacity:0.004" fill="#a2a2a2" d="M 426.5,279.5 C 427.239,279.369 427.906,279.536 428.5,280C 427.563,280.692 426.897,280.525 426.5,279.5 Z"/></g>
<g><path style="opacity:0.008" fill="#a8a8a8" d="M 229.5,280.5 C 230.239,280.369 230.906,280.536 231.5,281C 230.563,281.692 229.897,281.525 229.5,280.5 Z"/></g>
<g><path style="opacity:0.005" fill="#000000" d="M 151.5,291.5 C 150.833,291.5 150.5,291.167 150.5,290.5C 149.833,290.5 149.5,290.167 149.5,289.5C 150.286,287.408 151.286,287.741 152.5,290.5C 152.376,291.107 152.043,291.44 151.5,291.5 Z"/></g>
<g><path style="opacity:0.006" fill="#000000" d="M 162.5,302.5 C 164.664,301.882 166.33,302.882 167.5,305.5C 167.376,306.107 167.043,306.44 166.5,306.5C 165.833,306.5 165.5,306.167 165.5,305.5C 164.833,305.5 164.5,305.167 164.5,304.5C 163.833,304.5 163.5,304.167 163.5,303.5C 162.833,303.5 162.5,303.167 162.5,302.5 Z"/></g>
<g><path style="opacity:0.008" fill="#fab05f" d="M 343.5,310.5 C 347.981,309.352 352.648,309.185 357.5,310C 352.845,310.499 348.179,310.666 343.5,310.5 Z"/></g>
<g><path style="opacity:0.006" fill="#feff00" d="M 358.5,311.5 C 358.897,310.475 359.563,310.308 360.5,311C 359.906,311.464 359.239,311.631 358.5,311.5 Z"/></g>
<g><path style="opacity:1" fill="#eba341" d="M 374.5,347.5 C 372.808,349.205 371.475,351.205 370.5,353.5C 369.833,353.5 369.5,353.833 369.5,354.5C 368.833,354.5 368.5,354.833 368.5,355.5C 367.833,355.5 367.5,355.833 367.5,356.5C 366.833,356.5 366.5,356.833 366.5,357.5C 365.833,357.5 365.5,357.833 365.5,358.5C 364.833,358.5 364.5,358.833 364.5,359.5C 363.833,359.5 363.5,359.833 363.5,360.5C 362.833,360.5 362.5,360.833 362.5,361.5C 361.833,361.5 361.5,361.833 361.5,362.5C 360.833,362.5 360.5,362.833 360.5,363.5C 359.833,363.5 359.5,363.833 359.5,364.5C 358.167,365.167 357.167,366.167 356.5,367.5C 355.5,367.833 354.833,368.5 354.5,369.5C 352.833,370.5 351.5,371.833 350.5,373.5C 349.833,373.5 349.5,373.833 349.5,374.5C 348.833,374.5 348.5,374.833 348.5,375.5C 347.833,375.5 347.5,375.833 347.5,376.5C 346.833,376.5 346.5,376.833 346.5,377.5C 345.833,377.5 345.5,377.833 345.5,378.5C 344.833,378.5 344.5,378.833 344.5,379.5C 343.833,379.5 343.5,379.833 343.5,380.5C 342.833,380.5 342.5,380.833 342.5,381.5C 341.833,381.5 341.5,381.833 341.5,382.5C 340.5,382.833 339.833,383.5 339.5,384.5C 338.5,384.833 337.833,385.5 337.5,386.5C 336.5,386.833 335.833,387.5 335.5,388.5C 334.5,388.833 333.833,389.5 333.5,390.5C 332.5,390.833 331.833,391.5 331.5,392.5C 330.833,392.5 330.5,392.833 330.5,393.5C 329.833,393.5 329.5,393.833 329.5,394.5C 327.167,396.167 325.167,398.167 323.5,400.5C 322.833,400.5 322.5,400.833 322.5,401.5C 321.833,401.5 321.5,401.833 321.5,402.5C 320.833,402.5 320.5,402.833 320.5,403.5C 319.833,403.5 319.5,403.833 319.5,404.5C 318.508,404.328 317.842,404.662 317.5,405.5C 316.833,405.5 316.5,405.833 316.5,406.5C 315.833,406.5 315.5,406.833 315.5,407.5C 314.508,407.328 313.842,407.662 313.5,408.5C 312.833,408.5 312.5,408.833 312.5,409.5C 311.508,409.328 310.842,409.662 310.5,410.5C 309.833,410.5 309.5,410.833 309.5,411.5C 308.508,411.328 307.842,411.662 307.5,412.5C 306.508,412.328 305.842,412.662 305.5,413.5C 304.833,413.5 304.5,413.833 304.5,414.5C 303.508,414.328 302.842,414.662 302.5,415.5C 301.508,415.328 300.842,415.662 300.5,416.5C 299.508,416.328 298.842,416.662 298.5,417.5C 297.209,417.263 296.209,417.596 295.5,418.5C 294.508,418.328 293.842,418.662 293.5,419.5C 292.209,419.263 291.209,419.596 290.5,420.5C 289.508,420.328 288.842,420.662 288.5,421.5C 286.901,421.232 285.568,421.566 284.5,422.5C 283.209,422.263 282.209,422.596 281.5,423.5C 267.27,426.397 252.937,427.064 238.5,425.5C 225.532,422.561 213.199,417.728 201.5,411C 198.58,409.054 195.913,406.887 193.5,404.5C 201.525,408.503 209.525,408.336 217.5,404C 231.563,393.256 233.896,380.423 224.5,365.5C 225.833,365.833 227.167,366.167 228.5,366.5C 228.973,367.906 229.973,368.573 231.5,368.5C 241.426,373.848 252.093,375.682 263.5,374C 266.742,373.594 269.742,372.761 272.5,371.5C 277.086,370.54 281.086,368.54 284.5,365.5C 285.167,365.5 285.5,365.167 285.5,364.5C 287.23,363.974 288.564,362.974 289.5,361.5C 290.167,361.5 290.5,361.167 290.5,360.5C 292.167,359.5 293.5,358.167 294.5,356.5C 295.167,356.5 295.5,356.167 295.5,355.5C 296.167,355.5 296.5,355.167 296.5,354.5C 297.167,354.5 297.5,354.167 297.5,353.5C 298.167,353.5 298.5,353.167 298.5,352.5C 299.167,352.5 299.5,352.167 299.5,351.5C 300.167,351.5 300.5,351.167 300.5,350.5C 301.167,350.5 301.5,350.167 301.5,349.5C 302.167,349.5 302.5,349.167 302.5,348.5C 303.167,348.5 303.5,348.167 303.5,347.5C 304.167,347.5 304.5,347.167 304.5,346.5C 305.167,346.5 305.5,346.167 305.5,345.5C 306.167,345.5 306.5,345.167 306.5,344.5C 307.167,344.5 307.5,344.167 307.5,343.5C 308.167,343.5 308.5,343.167 308.5,342.5C 309.167,342.5 309.5,342.167 309.5,341.5C 310.167,341.5 310.5,341.167 310.5,340.5C 311.167,340.5 311.5,340.167 311.5,339.5C 312.167,339.5 312.5,339.167 312.5,338.5C 313.167,338.5 313.5,338.167 313.5,337.5C 314.167,337.5 314.5,337.167 314.5,336.5C 316.5,335.167 318.167,333.5 319.5,331.5C 320.167,331.5 320.5,331.167 320.5,330.5C 321.167,330.5 321.5,330.167 321.5,329.5C 322.167,329.5 322.5,329.167 322.5,328.5C 323.833,327.833 324.833,326.833 325.5,325.5C 326.167,325.5 326.5,325.167 326.5,324.5C 327.167,324.5 327.5,324.167 327.5,323.5C 328.167,323.5 328.5,323.167 328.5,322.5C 329.167,322.5 329.5,322.167 329.5,321.5C 330.167,321.5 330.5,321.167 330.5,320.5C 331.167,320.5 331.5,320.167 331.5,319.5C 332.167,319.5 332.5,319.167 332.5,318.5C 333.167,318.5 333.5,318.167 333.5,317.5C 351.232,306.469 365.065,310.135 375,328.5C 376.912,334.88 376.745,341.213 374.5,347.5 Z M 228.5,366.5 C 230.027,366.427 231.027,367.094 231.5,368.5C 229.973,368.573 228.973,367.906 228.5,366.5 Z"/></g>
<g><path style="opacity:0.004" fill="#f8db01" d="M 333.5,317.5 C 332.833,317.5 332.5,317.833 332.5,318.5C 331.833,318.5 331.5,318.833 331.5,319.5C 330.833,319.5 330.5,319.833 330.5,320.5C 329.833,320.5 329.5,320.833 329.5,321.5C 328.833,321.5 328.5,321.833 328.5,322.5C 327.833,322.5 327.5,322.833 327.5,323.5C 326.833,323.5 326.5,323.833 326.5,324.5C 325.833,324.5 325.5,324.833 325.5,325.5C 324.475,325.103 324.308,324.437 325,323.5C 327.167,321.333 329.333,319.167 331.5,317C 332.437,316.308 333.103,316.475 333.5,317.5 Z"/></g>
<g><path style="opacity:0.005" fill="#000000" d="M 111.5,324.5 C 112.167,324.5 112.5,324.833 112.5,325.5C 113.167,325.5 113.5,325.833 113.5,326.5C 114.167,326.5 114.5,326.833 114.5,327.5C 115.167,327.5 115.5,327.833 115.5,328.5C 116.167,328.5 116.5,328.833 116.5,329.5C 117.167,329.5 117.5,329.833 117.5,330.5C 118.167,330.5 118.5,330.833 118.5,331.5C 118.5,332.167 118.5,332.833 118.5,333.5C 115.87,331.372 113.37,329.039 111,326.5C 110.308,325.563 110.475,324.897 111.5,324.5 Z"/></g>
<g><path style="opacity:0.008" fill="#b95f0e" d="M 322.5,328.5 C 321.833,328.5 321.5,328.833 321.5,329.5C 321.167,329.5 320.833,329.5 320.5,329.5C 320.711,327.576 321.377,327.243 322.5,328.5 Z"/></g>
<g><path style="opacity:0.008" fill="#b95f0e" d="M 320.5,329.5 C 320.5,329.833 320.5,330.167 320.5,330.5C 319.833,330.5 319.5,330.833 319.5,331.5C 318.243,330.377 318.576,329.711 320.5,329.5 Z"/></g>
<g><path style="opacity:0.004" fill="#000000" d="M 118.5,333.5 C 119.167,333.5 119.833,333.5 120.5,333.5C 120.214,335.933 119.548,335.933 118.5,333.5 Z"/></g>
<g><path style="opacity:0.004" fill="#ffd6fe" d="M 374.5,347.5 C 375.525,347.897 375.692,348.563 375,349.5C 374.536,348.906 374.369,348.239 374.5,347.5 Z"/></g>
<g><path style="opacity:0.008" fill="#ff6efe" d="M 314.5,336.5 C 313.833,336.5 313.5,336.833 313.5,337.5C 312.833,337.5 312.5,337.833 312.5,338.5C 311.833,338.5 311.5,338.833 311.5,339.5C 310.833,339.5 310.5,339.833 310.5,340.5C 309.833,340.5 309.5,340.833 309.5,341.5C 308.833,341.5 308.5,341.833 308.5,342.5C 307.833,342.5 307.5,342.833 307.5,343.5C 306.833,343.5 306.5,343.833 306.5,344.5C 305.833,344.5 305.5,344.833 305.5,345.5C 304.833,345.5 304.5,345.833 304.5,346.5C 303.833,346.5 303.5,346.833 303.5,347.5C 302.833,347.5 302.5,347.833 302.5,348.5C 301.833,348.5 301.5,348.833 301.5,349.5C 300.833,349.5 300.5,349.833 300.5,350.5C 299.833,350.5 299.5,350.833 299.5,351.5C 298.833,351.5 298.5,351.833 298.5,352.5C 297.833,352.5 297.5,352.833 297.5,353.5C 296.833,353.5 296.5,353.833 296.5,354.5C 295.833,354.5 295.5,354.833 295.5,355.5C 294.833,355.5 294.5,355.833 294.5,356.5C 293.475,356.103 293.308,355.437 294,354.5C 300.167,348.333 306.333,342.167 312.5,336C 313.437,335.308 314.103,335.475 314.5,336.5 Z"/></g>
<g><path style="opacity:0.008" fill="#fe8000" d="M 370.5,353.5 C 371.833,354.167 371.833,354.167 370.5,353.5 Z"/></g>
<g><path style="opacity:0.008" fill="#fe8000" d="M 369.5,354.5 C 369.833,354.5 370.167,354.5 370.5,354.5C 370.315,355.17 369.981,355.17 369.5,354.5 Z"/></g>
<g><path style="opacity:0.004" fill="#ffcffb" d="M 290.5,360.5 C 289.833,360.5 289.5,360.833 289.5,361.5C 287.025,361.253 287.025,360.587 289.5,359.5C 290.107,359.624 290.44,359.957 290.5,360.5 Z"/></g>
<g><path style="opacity:0.007" fill="#313012" d="M 222.5,362.5 C 223.497,361.287 224.497,361.454 225.5,363C 224.906,363.464 224.239,363.631 223.5,363.5C 222.833,363.5 222.5,363.167 222.5,362.5 Z"/></g>
<g><path style="opacity:0.004" fill="#ed6801" d="M 368.5,355.5 C 368.833,355.5 369.167,355.5 369.5,355.5C 366.94,359.57 363.773,363.236 360,366.5C 359.536,365.906 359.369,365.239 359.5,364.5C 360.167,364.5 360.5,364.167 360.5,363.5C 361.167,363.5 361.5,363.167 361.5,362.5C 362.167,362.5 362.5,362.167 362.5,361.5C 363.167,361.5 363.5,361.167 363.5,360.5C 364.167,360.5 364.5,360.167 364.5,359.5C 365.167,359.5 365.5,359.167 365.5,358.5C 366.167,358.5 366.5,358.167 366.5,357.5C 367.167,357.5 367.5,357.167 367.5,356.5C 368.167,356.5 368.5,356.167 368.5,355.5 Z"/></g>
<g><path style="opacity:0.004" fill="#e47003" d="M 285.5,364.5 C 284.833,364.5 284.5,364.833 284.5,365.5C 282.025,365.253 282.025,364.587 284.5,363.5C 285.107,363.624 285.44,363.957 285.5,364.5 Z"/></g>
<g><path style="opacity:0.004" fill="#ffd1f8" d="M 356.5,367.5 C 358.933,367.786 358.933,368.452 356.5,369.5C 356.5,368.833 356.5,368.167 356.5,367.5 Z"/></g>
<g><path style="opacity:0.008" fill="#fe8000" d="M 275.5,368.5 C 276.833,369.167 276.833,369.167 275.5,368.5 Z"/></g>
<g><path style="opacity:0.004" fill="#feff00" d="M 354.5,369.5 C 355.167,369.5 355.833,369.5 356.5,369.5C 355.452,371.933 354.786,371.933 354.5,369.5 Z"/></g>
<g><path style="opacity:0.004" fill="#d76422" d="M 272.5,371.5 C 267.436,371.302 267.603,370.635 273,369.5C 273.5,369.667 274,369.833 274.5,370C 273.584,370.278 272.918,370.778 272.5,371.5 Z"/></g>
<g><path style="opacity:0.004" fill="#000000" d="M 161.5,374.5 C 162.167,374.5 162.5,374.833 162.5,375.5C 162.5,376.167 162.5,376.833 162.5,377.5C 159.783,376.322 159.45,375.322 161.5,374.5 Z"/></g>
<g><path style="opacity:0.004" fill="#ffd9fa" d="M 350.5,373.5 C 351.239,373.369 351.906,373.536 352.5,374C 348.964,377.704 345.298,381.204 341.5,384.5C 341.5,383.833 341.5,383.167 341.5,382.5C 342.167,382.5 342.5,382.167 342.5,381.5C 343.167,381.5 343.5,381.167 343.5,380.5C 344.167,380.5 344.5,380.167 344.5,379.5C 345.167,379.5 345.5,379.167 345.5,378.5C 346.167,378.5 346.5,378.167 346.5,377.5C 347.167,377.5 347.5,377.167 347.5,376.5C 348.167,376.5 348.5,376.167 348.5,375.5C 349.167,375.5 349.5,375.167 349.5,374.5C 350.167,374.5 350.5,374.167 350.5,373.5 Z"/></g>
<g><path style="opacity:0.004" fill="#000000" d="M 162.5,377.5 C 163.167,377.5 163.833,377.5 164.5,377.5C 164.214,379.933 163.548,379.933 162.5,377.5 Z"/></g>
<g><path style="opacity:0.004" fill="#feff00" d="M 339.5,384.5 C 340.167,384.5 340.833,384.5 341.5,384.5C 341.167,385.5 340.5,386.167 339.5,386.5C 339.5,385.833 339.5,385.167 339.5,384.5 Z"/></g>
<g><path style="opacity:0.004" fill="#feff00" d="M 337.5,386.5 C 338.167,386.5 338.833,386.5 339.5,386.5C 339.167,387.5 338.5,388.167 337.5,388.5C 337.5,387.833 337.5,387.167 337.5,386.5 Z"/></g>
<g><path style="opacity:0.004" fill="#feff00" d="M 335.5,388.5 C 336.167,388.5 336.833,388.5 337.5,388.5C 337.167,389.5 336.5,390.167 335.5,390.5C 335.5,389.833 335.5,389.167 335.5,388.5 Z"/></g>
<g><path style="opacity:0.004" fill="#feff00" d="M 333.5,390.5 C 334.167,390.5 334.833,390.5 335.5,390.5C 335.167,391.5 334.5,392.167 333.5,392.5C 333.5,391.833 333.5,391.167 333.5,390.5 Z"/></g>
<g><path style="opacity:0.004" fill="#ffe5fb" d="M 331.5,392.5 C 332.167,392.5 332.833,392.5 333.5,392.5C 332.542,393.962 331.376,395.295 330,396.5C 329.536,395.906 329.369,395.239 329.5,394.5C 330.167,394.5 330.5,394.167 330.5,393.5C 331.167,393.5 331.5,393.167 331.5,392.5 Z"/></g>
<g><path style="opacity:0.004" fill="#ff8ef9" d="M 323.5,400.5 C 325.793,401.301 325.46,401.968 322.5,402.5C 322.5,402.167 322.5,401.833 322.5,401.5C 323.167,401.5 323.5,401.167 323.5,400.5 Z"/></g>
<g><path style="opacity:0.008" fill="#fe8000" d="M 321.5,402.5 C 321.833,402.5 322.167,402.5 322.5,402.5C 322.315,403.17 321.981,403.17 321.5,402.5 Z"/></g>
<g><path style="opacity:0.012" fill="#feaa54" d="M 320.5,403.5 C 320.833,403.5 321.167,403.5 321.5,403.5C 321.315,404.17 320.981,404.17 320.5,403.5 Z"/></g>
<g><path style="opacity:0.008" fill="#fe8000" d="M 319.5,404.5 C 319.833,404.5 320.167,404.5 320.5,404.5C 320.315,405.17 319.981,405.17 319.5,404.5 Z"/></g>
<g><path style="opacity:0.004" fill="#8c593e" d="M 317.5,405.5 C 318.167,405.5 318.833,405.5 319.5,405.5C 319.027,406.906 318.027,407.573 316.5,407.5C 316.5,407.167 316.5,406.833 316.5,406.5C 317.167,406.5 317.5,406.167 317.5,405.5 Z"/></g>
<g><path style="opacity:0.008" fill="#fe807f" d="M 315.5,407.5 C 315.833,407.5 316.167,407.5 316.5,407.5C 316.315,408.17 315.981,408.17 315.5,407.5 Z"/></g>
<g><path style="opacity:0.004" fill="#ffc1f7" d="M 313.5,409.5 C 313.5,409.167 313.5,408.833 313.5,408.5C 314.167,408.5 314.833,408.5 315.5,408.5C 315.158,409.338 314.492,409.672 313.5,409.5 Z"/></g>
<g><path style="opacity:0.008" fill="#feff7f" d="M 312.5,409.5 C 312.833,409.5 313.167,409.5 313.5,409.5C 313.315,410.17 312.981,410.17 312.5,409.5 Z"/></g>
<g><path style="opacity:0.004" fill="#feff00" d="M 310.5,411.5 C 310.5,411.167 310.5,410.833 310.5,410.5C 311.167,410.5 311.833,410.5 312.5,410.5C 312.158,411.338 311.492,411.672 310.5,411.5 Z"/></g>
<g><path style="opacity:0.008" fill="#fe807f" d="M 309.5,411.5 C 309.833,411.5 310.167,411.5 310.5,411.5C 310.315,412.17 309.981,412.17 309.5,411.5 Z"/></g>
<g><path style="opacity:0.004" fill="#ff7ef8" d="M 307.5,413.5 C 307.5,413.167 307.5,412.833 307.5,412.5C 308.167,412.5 308.833,412.5 309.5,412.5C 309.158,413.338 308.492,413.672 307.5,413.5 Z"/></g>
<g><path style="opacity:0.008" fill="#a8a800" d="M 305.5,414.5 C 305.5,414.167 305.5,413.833 305.5,413.5C 306.167,413.5 306.833,413.5 307.5,413.5C 307.158,414.338 306.492,414.672 305.5,414.5 Z"/></g>
<g><path style="opacity:0.008" fill="#fe8000" d="M 304.5,414.5 C 304.833,414.5 305.167,414.5 305.5,414.5C 305.315,415.17 304.981,415.17 304.5,414.5 Z"/></g>
<g><path style="opacity:0.004" fill="#ff46ff" d="M 302.5,416.5 C 302.5,416.167 302.5,415.833 302.5,415.5C 303.167,415.5 303.833,415.5 304.5,415.5C 304.158,416.338 303.492,416.672 302.5,416.5 Z"/></g>
<g><path style="opacity:0.004" fill="#d2d200" d="M 300.5,417.5 C 300.5,417.167 300.5,416.833 300.5,416.5C 301.167,416.5 301.833,416.5 302.5,416.5C 302.158,417.338 301.492,417.672 300.5,417.5 Z"/></g>
<g><path style="opacity:0.004" fill="#ffd6fe" d="M 298.5,418.5 C 298.5,418.167 298.5,417.833 298.5,417.5C 299.167,417.5 299.833,417.5 300.5,417.5C 300.158,418.338 299.492,418.672 298.5,418.5 Z"/></g>
<g><path style="opacity:0.004" fill="#ffd1f8" d="M 295.5,419.5 C 295.5,419.167 295.5,418.833 295.5,418.5C 296.5,418.5 297.5,418.5 298.5,418.5C 297.791,419.404 296.791,419.737 295.5,419.5 Z"/></g>
<g><path style="opacity:0.008" fill="#ffacfe" d="M 293.5,420.5 C 293.5,420.167 293.5,419.833 293.5,419.5C 294.167,419.5 294.833,419.5 295.5,419.5C 295.158,420.338 294.492,420.672 293.5,420.5 Z"/></g>
<g><path style="opacity:0.008" fill="#ff90fc" d="M 290.5,421.5 C 290.5,421.167 290.5,420.833 290.5,420.5C 291.5,420.5 292.5,420.5 293.5,420.5C 292.791,421.404 291.791,421.737 290.5,421.5 Z"/></g>
<g><path style="opacity:0.008" fill="#ab82ff" d="M 288.5,422.5 C 288.5,422.167 288.5,421.833 288.5,421.5C 289.167,421.5 289.833,421.5 290.5,421.5C 290.158,422.338 289.492,422.672 288.5,422.5 Z"/></g>
<g><path style="opacity:0.004" fill="#e6b3fc" d="M 284.5,423.5 C 284.5,423.167 284.5,422.833 284.5,422.5C 285.833,422.5 287.167,422.5 288.5,422.5C 287.432,423.434 286.099,423.768 284.5,423.5 Z"/></g>
<g><path style="opacity:0.008" fill="#ffc1fd" d="M 281.5,424.5 C 281.5,424.167 281.5,423.833 281.5,423.5C 282.5,423.5 283.5,423.5 284.5,423.5C 283.791,424.404 282.791,424.737 281.5,424.5 Z"/></g>
<g><path style="opacity:0.008" fill="#ff9b2f" d="M 281.5,424.5 C 280.399,425.598 279.066,425.765 277.5,425C 278.793,424.51 280.127,424.343 281.5,424.5 Z"/></g>
<g><path style="opacity:0.004" fill="#f5c41c" d="M 238.5,425.5 C 238.5,425.833 238.5,426.167 238.5,426.5C 231.833,426.167 231.833,425.833 238.5,425.5 Z"/></g>
<g><path style="opacity:0.012" fill="#efcc24" d="M 272.5,426.5 C 273.601,425.402 274.934,425.235 276.5,426C 275.207,426.49 273.873,426.657 272.5,426.5 Z"/></g>
<g><path style="opacity:0.008" fill="#ff8870" d="M 238.5,426.5 C 241.518,426.335 244.518,426.502 247.5,427C 244.304,427.805 241.304,427.638 238.5,426.5 Z"/></g>
<g><path style="opacity:0.008" fill="#f99160" d="M 272.5,426.5 C 269.696,427.638 266.696,427.805 263.5,427C 266.482,426.502 269.482,426.335 272.5,426.5 Z"/></g>
<g><path style="opacity:0.004" fill="#feff00" d="M 248.5,428.5 C 252.981,427.352 257.648,427.185 262.5,428C 257.845,428.499 253.179,428.666 248.5,428.5 Z"/></g>
</svg>
